<?xml version="1.0" encoding="UTF-8" standalone="no"?>
<!-- Created with Inkscape (http://www.inkscape.org/) -->

<svg
   xmlns:dc="http://purl.org/dc/elements/1.1/"
   xmlns:cc="http://creativecommons.org/ns#"
   xmlns:rdf="http://www.w3.org/1999/02/22-rdf-syntax-ns#"
   xmlns:svg="http://www.w3.org/2000/svg"
   xmlns="http://www.w3.org/2000/svg"
   xmlns:xlink="http://www.w3.org/1999/xlink"
   xmlns:sodipodi="http://sodipodi.sourceforge.net/DTD/sodipodi-0.dtd"
   xmlns:inkscape="http://www.inkscape.org/namespaces/inkscape"
   width="19"
   height="19"
   id="svg2"
   version="1.1"
   inkscape:version="0.48.4 r9939"
   sodipodi:docname="19.svg">
  <defs
     id="defs4">
    <linearGradient
       id="linearGradient3797">
      <stop
         style="stop-color:#e0e0e0;stop-opacity:1;"
         offset="0"
         id="stop3799" />
      <stop
         style="stop-color:#eeeeee;stop-opacity:1;"
         offset="1"
         id="stop3801" />
    </linearGradient>
    <linearGradient
       id="linearGradient3780">
      <stop
         style="stop-color:#bbbbbb;stop-opacity:1;"
         offset="0"
         id="stop3782" />
      <stop
         style="stop-color:#dbdbdb;stop-opacity:1;"
         offset="1"
         id="stop3784" />
    </linearGradient>
    <linearGradient
       inkscape:collect="always"
       xlink:href="#linearGradient3797"
       id="linearGradient3803"
       x1="10"
       y1="1038.3622"
       x2="10"
       y2="1048.3622"
       gradientUnits="userSpaceOnUse" />
    <linearGradient
       inkscape:collect="always"
       xlink:href="#linearGradient3797"
       id="linearGradient3846"
       gradientUnits="userSpaceOnUse"
       x1="10"
       y1="4"
       x2="10"
       y2="16" />
    <linearGradient
       inkscape:collect="always"
       xlink:href="#linearGradient3797"
       id="linearGradient3848"
       gradientUnits="userSpaceOnUse"
       x1="10"
       y1="4"
       x2="10"
       y2="16" />
  </defs>
  <sodipodi:namedview
     id="base"
     pagecolor="#ffffff"
     bordercolor="#666666"
     borderopacity="1.0"
     inkscape:pageopacity="0.0"
     inkscape:pageshadow="2"
     inkscape:zoom="32"
     inkscape:cx="18.880498"
     inkscape:cy="9.9917832"
     inkscape:document-units="px"
     inkscape:current-layer="layer1"
     showgrid="true"
     inkscape:snap-bbox="true"
     inkscape:snap-bbox-midpoints="false"
     inkscape:bbox-paths="true"
     inkscape:snap-global="true">
    <inkscape:grid
       type="xygrid"
       id="grid2985"
       empspacing="10"
       visible="true"
       enabled="true"
       snapvisiblegridlinesonly="true" />
  </sodipodi:namedview>
  <metadata
     id="metadata7">
    <rdf:RDF>
      <cc:Work
         rdf:about="">
        <dc:format>image/svg+xml</dc:format>
        <dc:type
           rdf:resource="http://purl.org/dc/dcmitype/StillImage" />
        <dc:title></dc:title>
      </cc:Work>
    </rdf:RDF>
  </metadata>
  <g
     inkscape:label="Layer 1"
     inkscape:groupmode="layer"
     id="layer1"
     transform="translate(0,-1033.3622)">
    <path
       transform="translate(0,1034.3622)"
       d="m 17,9.5 a 7.5,7.5 0 1 1 -15,0 7.5,7.5 0 1 1 15,0 z"
       sodipodi:ry="7.5"
       sodipodi:rx="7.5"
       sodipodi:cy="9.5"
       sodipodi:cx="9.5"
       id="path3851"
       style="fill:#ffffff;fill-opacity:0.50196081;stroke:none"
       sodipodi:type="arc" />
    <path
       sodipodi:type="arc"
       style="fill:#808080;fill-opacity:1;stroke:none;stroke-width:2;stroke-linecap:square;stroke-linejoin:round;stroke-miterlimit:4;stroke-opacity:1;stroke-dasharray:none"
       id="path3830"
       sodipodi:cx="9.5"
       sodipodi:cy="9.5"
       sodipodi:rx="7.5"
       sodipodi:ry="7.5"
       d="m 17,9.5 a 7.5,7.5 0 1 1 -15,0 7.5,7.5 0 1 1 15,0 z"
       transform="translate(0,1033.3622)" />
    <path
       transform="translate(0,1033.3622)"
       d="m 16,9.5 a 6.5,6.5 0 1 1 -13,0 6.5,6.5 0 1 1 13,0 z"
       sodipodi:ry="6.5"
       sodipodi:rx="6.5"
       sodipodi:cy="9.5"
       sodipodi:cx="9.5"
       id="path3832"
       style="fill:#e0e0e0;fill-opacity:1;stroke:none"
       sodipodi:type="arc" />
    <path
       transform="translate(-1,1034.3622)"
       d="m 12,9.5 a 1.5,1.5 0 1 1 -3,0 1.5,1.5 0 1 1 3,0 z"
       sodipodi:ry="1.5"
       sodipodi:rx="1.5"
       sodipodi:cy="9.5"
       sodipodi:cx="10.5"
       id="path3859"
       style="fill:#ffffff;fill-opacity:0.50196081;stroke:none"
       sodipodi:type="arc" />
    <path
       sodipodi:type="arc"
       style="fill:#3388ff;fill-opacity:1;stroke:none"
       id="path3853"
       sodipodi:cx="10.5"
       sodipodi:cy="9.5"
       sodipodi:rx="1.5"
       sodipodi:ry="1.5"
       d="m 12,9.5 a 1.5,1.5 0 1 1 -3,0 1.5,1.5 0 1 1 3,0 z"
       transform="translate(-1,1033.3622)" />
    <path
       sodipodi:type="arc"
       style="fill:#ffffff;fill-opacity:0.50196081;stroke:none"
       id="path3861"
       sodipodi:cx="10.5"
       sodipodi:cy="9.5"
       sodipodi:rx="1.5"
       sodipodi:ry="1.5"
       d="m 12,9.5 a 1.5,1.5 0 1 1 -3,0 1.5,1.5 0 1 1 3,0 z"
       transform="translate(-5,1034.3622)" />
    <path
       transform="translate(-5,1033.3622)"
       d="m 12,9.5 a 1.5,1.5 0 1 1 -3,0 1.5,1.5 0 1 1 3,0 z"
       sodipodi:ry="1.5"
       sodipodi:rx="1.5"
       sodipodi:cy="9.5"
       sodipodi:cx="10.5"
       id="path3855"
       style="fill:#3388ff;fill-opacity:1;stroke:none"
       sodipodi:type="arc" />
    <path
       transform="translate(3,1034.3622)"
       d="m 12,9.5 a 1.5,1.5 0 1 1 -3,0 1.5,1.5 0 1 1 3,0 z"
       sodipodi:ry="1.5"
       sodipodi:rx="1.5"
       sodipodi:cy="9.5"
       sodipodi:cx="10.5"
       id="path3863"
       style="fill:#ffffff;fill-opacity:0.50196081;stroke:none"
       sodipodi:type="arc" />
    <path
       sodipodi:type="arc"
       style="fill:#3388ff;fill-opacity:1;stroke:none"
       id="path3857"
       sodipodi:cx="10.5"
       sodipodi:cy="9.5"
       sodipodi:rx="1.5"
       sodipodi:ry="1.5"
       d="m 12,9.5 a 1.5,1.5 0 1 1 -3,0 1.5,1.5 0 1 1 3,0 z"
       transform="translate(3,1033.3622)" />
  </g>
</svg>
